# Blender 4.4.0
# www.blender.org
o Icosphere
v -0.000378 -0.168329 0.038507
v 0.164824 -0.117544 0.186019
v -0.067248 -0.117514 0.316657
v -0.171634 -0.126767 0.020552
v -0.043200 -0.135354 -0.364741
v 0.111744 -0.144036 -0.202177
v 0.113756 0.140263 0.393569
v -0.294600 0.161229 0.202003
v -0.282872 0.085998 -0.224993
v 0.123861 0.033856 -0.347491
v 0.344773 0.149083 -0.007227
v -0.000378 0.248041 0.027057
v -0.021722 -0.142128 0.190455
v 0.056510 -0.153327 0.121887
v 0.067085 -0.122808 0.287612
v 0.149995 -0.133410 0.023961
v 0.032297 -0.161772 -0.085690
v -0.052150 -0.158598 0.023605
v -0.141523 -0.129801 0.182376
v -0.009107 -0.158236 -0.163828
v -0.091100 -0.149669 -0.187784
v 0.036168 -0.139564 -0.337197
v 0.282609 -0.021020 0.105766
v 0.291496 -0.069145 -0.126753
v -0.000378 -0.064814 0.450569
v 0.180581 -0.008010 0.315458
v -0.283366 -0.021020 0.105766
v -0.181338 -0.008010 0.315458
v -0.183099 -0.054219 -0.375946
v -0.292252 -0.069145 -0.126753
v 0.182343 -0.054219 -0.375946
v -0.000378 -0.073157 -0.481875
v 0.291395 0.193969 0.198029
v -0.120883 0.174030 0.380215
v -0.354163 0.181059 -0.009414
v -0.116434 0.053376 -0.321793
v 0.282768 0.105788 -0.218411
v 0.074359 0.288104 0.227413
v 0.232438 0.242896 0.000694
v -0.200512 0.268929 0.135196
v -0.182137 0.210845 -0.114661
v 0.071788 0.164146 -0.176043
vn 0.0090 -0.9852 0.1711
vn 0.0161 -0.9838 0.1788
vn 0.0103 -0.9850 0.1724
vn 0.2761 -0.9587 0.0686
vn -0.2206 -0.9659 0.1356
vn -0.1730 -0.9840 -0.0416
vn 0.0095 -0.9987 -0.0502
vn 0.6405 -0.7678 0.0166
vn 0.0386 -0.9363 0.3492
vn -0.6402 -0.7610 0.1049
vn -0.4797 -0.8546 -0.1990
vn 0.4312 -0.8610 -0.2699
vn 0.7279 -0.5646 0.3892
vn -0.5888 -0.6076 0.5331
vn -0.5978 -0.7802 0.1843
vn -0.3899 -0.7467 -0.5390
vn 0.4606 -0.8509 -0.2527
vn 0.3927 0.7313 0.5576
vn -0.5154 0.7293 0.4500
vn -0.4261 0.7673 -0.4793
vn -0.0000 0.7962 -0.6051
vn -0.0000 0.7961 -0.6051
vn 0.5926 0.7370 -0.3251
vn -0.0237 0.9210 -0.3889
vn 0.1351 0.8536 -0.5031
vn 0.1066 0.8070 -0.5809
vn 0.0856 0.9312 -0.3542
vn 0.0001 0.7961 -0.6052
vn -0.2235 0.7405 -0.6338
vn -0.0215 0.9735 -0.2279
vn -0.3047 0.9225 -0.2369
vn -0.6471 0.7203 0.2499
vn -0.0030 0.9808 -0.1950
vn -0.0017 0.9807 -0.1955
vn -0.0018 0.9807 -0.1954
vn -0.1995 0.8902 0.4096
vn 0.0712 0.7535 0.6536
vn -0.0005 0.9806 -0.1959
vn 0.4075 0.9073 0.1032
vn 0.6409 0.7676 -0.0012
vn 0.9604 -0.0901 -0.2635
vn 0.8994 -0.1668 -0.4040
vn 0.3922 0.5082 -0.7668
vn 0.3923 0.5082 -0.7667
vn 0.3926 0.5083 -0.7665
vn -0.0028 0.7835 -0.6213
vn -0.3594 0.5876 -0.7250
vn -0.3229 0.5775 -0.7498
vn -0.9571 -0.1114 -0.2674
vn -0.9551 -0.2807 0.0946
vn -0.9494 -0.1903 0.2496
vn -0.7157 -0.0108 0.6984
vn -0.6119 -0.0768 0.7872
vn -0.0151 0.2755 0.9612
vn 0.7425 -0.0181 0.6696
vn 0.8710 -0.2234 0.4376
vn 0.9464 -0.1592 0.2809
vn 0.3920 0.5081 -0.7670
vn 0.3524 -0.8136 -0.4625
vn 0.1041 -0.8937 -0.4365
vn -0.8927 -0.2013 -0.4031
vn -0.4222 -0.8749 -0.2374
vn -0.3834 -0.9224 -0.0468
vn -0.8558 -0.2819 0.4339
vn -0.6830 -0.6290 0.3713
vn -0.6337 -0.6557 0.4105
vn 0.6190 -0.1292 0.7747
vn 0.5658 -0.6745 0.4743
vn 0.5534 -0.6678 0.4978
vn 0.9537 -0.2851 0.0955
vn 0.5650 -0.8034 0.1879
vn 0.3928 -0.9193 -0.0232
vn 0.0951 -0.9917 -0.0861
vn 0.0784 -0.9932 -0.0865
vn -0.0143 -0.9937 -0.1108
vn -0.0743 -0.9922 -0.1004
vn -0.0969 -0.9950 -0.0242
vn -0.2576 -0.9662 0.0066
vn -0.2580 -0.9657 0.0299
vn -0.1095 -0.9870 0.1174
vn -0.1113 -0.9822 0.1514
vn 0.2270 -0.9739 0.0083
vn 0.2231 -0.9747 0.0127
vn 0.2279 -0.9737 0.0072
vn 0.2221 -0.9749 0.0138
vn 0.2390 -0.9709 0.0116
vn 0.0029 -0.9813 0.1925
vn 0.0170 -0.9835 0.1800
vn 0.2212 -0.9615 0.1630
vt 0.666986 0.242640
vt 0.652119 0.179614
vt 0.710396 0.159114
vt 0.599945 0.115127
vt 0.572575 0.213720
vt 0.690766 0.264422
vt 0.621839 0.363496
vt 0.617822 0.307293
vt 0.496927 0.133326
vt 0.761559 0.096730
vt 0.680072 0.080043
vt 0.746218 0.001851
vt 0.777280 0.242287
vt 0.787028 0.145070
vt 0.867185 0.191726
vt 0.588953 0.489968
vt 0.660668 0.398152
vt 0.650098 0.532181
vt 0.542149 0.355781
vt 0.551657 0.453898
vt 0.444611 0.440574
vt 0.981562 0.695348
vt 0.920262 0.782988
vt 0.901949 0.636590
vt 0.796785 0.071191
vt 0.832333 0.001851
vt 0.880736 0.074186
vt 0.815927 0.328297
vt 0.525582 0.548332
vt 0.445338 0.267045
vt 0.121102 0.519776
vt 0.266900 0.460052
vt 0.251506 0.568945
vt 0.162000 0.801497
vt 0.103264 0.655501
vt 0.248637 0.752809
vt 0.001851 0.224485
vt 0.009026 0.075682
vt 0.088761 0.141025
vt 0.216434 0.373815
vt 0.079053 0.311156
vt 0.225848 0.233427
vt 0.426211 0.213199
vt 0.341337 0.314526
vt 0.362541 0.150315
vt 0.229524 0.094711
vt 0.134532 0.001851
vt 0.266900 0.886386
vt 0.319528 0.001851
vt 0.440909 0.093199
vt 0.967493 0.906576
vt 0.864460 0.956850
vt 0.818015 0.869937
vt 0.982612 0.998149
vt 0.243474 0.433829
vt 0.110436 0.456350
vt 0.025313 0.368409
vt 0.989918 0.280967
vt 0.899627 0.409254
vt 0.989918 0.154001
vt 0.062245 0.724785
vt 0.001851 0.592256
vt 0.777280 0.744445
vt 0.806219 0.576056
vt 0.783886 0.494872
vt 0.773578 0.413375
vt 0.751398 0.296389
vt 0.937533 0.498574
vt 0.982612 0.606589
vt 0.773578 0.193969
s 1
f 1/1/1 14/2/2 13/3/3
f 2/4/4 14/2/4 16/5/4
f 1/1/5 13/3/5 18/6/5
f 1/1/6 18/6/6 20/7/6
f 1/1/7 20/7/7 17/8/7
f 2/4/8 16/5/8 23/9/8
f 3/10/9 15/11/9 25/12/9
f 4/13/10 19/14/10 27/15/10
f 5/16/11 21/17/11 29/18/11
f 6/19/12 22/20/12 31/21/12
f 2/22/13 23/23/13 26/24/13
f 3/25/14 25/26/14 28/27/14
f 4/13/15 27/15/15 30/28/15
f 5/16/16 29/18/16 32/29/16
f 6/19/17 31/21/17 24/30/17
f 7/31/18 33/32/18 38/33/18
f 8/34/19 34/35/19 40/36/19
f 9/37/20 35/38/20 41/39/20
f 10/40/21 36/41/22 42/42/22
f 11/43/23 37/44/23 39/45/23
f 39/45/24 42/42/24 12/46/24
f 39/45/25 37/44/25 42/42/25
f 37/44/26 10/40/26 42/42/26
f 42/42/27 41/39/27 12/46/27
f 42/42/22 36/41/22 41/39/28
f 36/41/29 9/37/29 41/39/29
f 41/39/30 40/47/30 12/46/30
f 41/39/31 35/38/31 40/47/31
f 35/48/32 8/34/32 40/36/32
f 40/47/33 38/49/34 12/46/35
f 40/36/36 34/35/36 38/33/36
f 34/35/37 7/31/37 38/33/37
f 38/49/34 39/45/38 12/46/35
f 38/49/39 33/50/39 39/45/39
f 33/50/40 11/43/40 39/45/40
f 24/51/41 37/52/41 11/53/41
f 24/51/42 31/54/42 37/52/42
f 31/55/43 10/40/44 37/44/45
f 32/56/46 36/41/46 10/40/46
f 32/56/47 29/57/47 36/41/47
f 29/57/48 9/37/48 36/41/48
f 30/28/49 35/58/49 9/59/49
f 30/28/50 27/15/50 35/58/50
f 27/15/51 8/60/51 35/58/51
f 28/61/52 34/35/52 8/34/52
f 28/61/53 25/62/53 34/35/53
f 25/62/54 7/31/54 34/35/54
f 26/24/55 33/63/55 7/64/55
f 26/24/56 23/23/56 33/63/56
f 23/23/57 11/53/57 33/63/57
f 31/55/43 32/56/58 10/40/44
f 31/21/59 22/20/59 32/29/59
f 22/20/60 5/16/60 32/29/60
f 29/65/61 30/28/61 9/59/61
f 29/18/62 21/17/62 30/66/62
f 21/17/63 4/67/63 30/66/63
f 27/15/64 28/27/64 8/60/64
f 27/15/65 19/14/65 28/27/65
f 19/14/66 3/25/66 28/27/66
f 25/68/67 26/24/67 7/64/67
f 25/68/68 15/69/68 26/24/68
f 15/69/69 2/22/69 26/24/69
f 23/23/70 24/51/70 11/53/70
f 23/9/71 16/5/71 24/30/71
f 16/5/72 6/19/72 24/30/72
f 17/8/73 22/20/73 6/19/73
f 17/8/74 20/7/74 22/20/74
f 20/7/75 5/16/75 22/20/75
f 20/7/76 21/17/76 5/16/76
f 20/7/77 18/6/77 21/17/77
f 18/6/78 4/67/78 21/17/78
f 18/6/79 19/70/79 4/67/79
f 18/6/80 13/3/80 19/70/80
f 13/3/81 3/10/81 19/70/81
f 16/5/82 17/8/83 6/19/84
f 16/5/82 14/2/85 17/8/83
f 14/2/86 1/1/86 17/8/86
f 13/3/87 15/11/87 3/10/87
f 13/3/3 14/2/2 15/11/88
f 14/2/89 2/4/89 15/11/89
